<svg width="48" height="48" viewBox="0 0 48 48" fill="none" xmlns="http://www.w3.org/2000/svg">
<rect width="48" height="48" fill="white"/>
<path d="M23.5 45C33.453 45 41.7494 37.907 43.61 28.5H3.39004C5.25061 37.907 13.547 45 23.5 45Z" fill="#2B2929"/>
<path d="M44 24.5C44 13.4543 35.0457 4.5 24 4.5C12.9543 4.5 4 13.4543 4 24.5C4 25.6944 4.10611 26.8638 4.30664 28H43.6934C43.8939 26.8638 44 25.6944 44 24.5ZM4.50879 29C6.5501 37.8787 14.502 44.5 24 44.5C33.498 44.5 41.4499 37.8787 43.4912 29H4.50879ZM45 24.5C45 25.9014 44.8627 27.2713 44.6006 28.5967C42.6946 38.2333 34.1964 45.5 24 45.5C13.8036 45.5 5.30542 38.2333 3.39941 28.5967C3.13729 27.2713 3 25.9014 3 24.5C3 12.902 12.402 3.5 24 3.5C35.598 3.5 45 12.902 45 24.5Z" fill="black"/>
<path d="M13 10H16.3904L24.3626 24.1113H24.6375L32.6096 10H36V27H33.3426V14.084H33.1135L25.7829 27H23.2171L15.8865 14.084H15.6574V27H13V10Z" fill="black"/>
<path d="M36 38H32.6096L24.6375 31.3594H24.3626L16.3905 38H13L13 34L13 30L15.6574 30V36.0781H15.8865L23.2171 30H25.7829L33.1135 36.0781H33.3426V30H36V38Z" fill="white"/>
</svg>
